# xmcd
#
# Track frame offsets: 
#        150
#        14858
#        28521
#        50902
#        64617
#        84626
#        100958
#        120106
#        137549
#        155778
#        167605
#        183293
#
# Disc length: 2658 seconds
#
# Revision: 0
# Processed by: cddbd v1.5PL3 Copyright (c) Steve Scherf et al.
# Submitted via: ExactAudioCopy v0.90b4
#
DISCID=9c0a600c
DTITLE=Various Artist - As Melhores Canções Gaúchas [CD11 of 12)
DYEAR=1994
DGENRE=Gauchesca
TTITLE0=Wilson Paim - Castelhana
TTITLE1=Leonardo - Sistema Antigo
TTITLE2=Luiz Carlos Borges - Negrinho Do Pastoreio
TTITLE3=Dante Ramon Ledesma - Última Lembrança
TTITLE4=Wilson Paim - Uma sombra De Carreta
TTITLE5=Luiz Marenco - Chamarrita De Galpão
TTITLE6=Candeeiro De Pago - Favo De Mel
TTITLE7=Grupo Querência - De Fogões E Inverneiras
TTITLE8=Luiz Carlos Borges - Tropa De Osso
TTITLE9=Chaloy Jara - A Los Amigos De Caxias
TTITLE10=Paullo Costa - Bailanta Do TioFlor
TTITLE11=Candeeiro Do Pago - Aragana
EXTD=
EXTT0=
EXTT1=
EXTT2=
EXTT3=
EXTT4=
EXTT5=
EXTT6=
EXTT7=
EXTT8=
EXTT9=
EXTT10=
EXTT11=
PLAYORDER=
